<?xml version="1.0" standalone="no"?><!DOCTYPE svg PUBLIC "-//W3C//DTD SVG 1.1//EN" "http://www.w3.org/Graphics/SVG/1.1/DTD/svg11.dtd"><svg t="1524571978161" class="icon" style="" viewBox="0 0 1024 1024" version="1.1" xmlns="http://www.w3.org/2000/svg" p-id="7664" xmlns:xlink="http://www.w3.org/1999/xlink" width="64" height="64"><defs><style type="text/css"></style></defs><path d="M777.121 918.492c9.324-6.314 15.367-16.851 15.367-28.804 0-1.984-0.167-3.931-0.489-5.825l-40.271-240.403c-1.541-9.121 1.457-18.39 7.997-24.908l173.754-173.444c9.434-9.247 12.725-23.116 8.434-35.612-4.78-13.103-16.465-22.583-30.537-24.105l-236.165-35.124c-9.934-1.526-18.074-7.991-21.923-16.764l-102.622-212.993c-6.061-12.578-19.348-20.681-33.842-20.681s-27.781 8.123-33.885 20.704l-103.008 213.887c-4.294 8.745-12.685 14.899-22.598 15.994l-235.963 35.092c-13.684 2.042-25.306 11.473-29.657 24.053-1.163 3.296-1.837 7.099-1.837 11.055 0 9.589 3.947 18.256 10.304 24.464l173.721 173.47c6.519 6.519 9.52 15.808 7.997 24.908l-40.276 240.589c-2.253 13.367 3.497 26.512 15.037 34.467 6.137 4.126 13.694 6.588 21.825 6.588 6.676 0 12.967-1.658 18.479-4.587l206.363-111.15c4.205-2.231 8.851-3.396 13.519-3.396 4.643 0 9.306 1.164 13.519 3.396l206.639 111.277c5.296 2.804 11.573 4.453 18.235 4.453 8.15 0 15.723-2.464 22.019-6.687z" fill="#CFCF5A" p-id="7665"></path><path d="M973.806 485.51c16.741-16.51 27.114-39.443 27.114-64.802 0-10.672-1.837-20.917-5.211-30.43-9.521-26.796-30.947-47.935-57.915-57.054-3.36-1.887-15.217-4.743-27.676-5.245l-211.484-31.996-96.528-200.27c-15.495-32.175-48.964-52.986-85.241-52.986s-69.748 20.786-85.286 52.986l-96.47 200.27-222.092 33.009c-36.096 5.276-65.174 30.517-75.924 63.982-2.478 6.861-4.313 17.084-4.313 27.735 0 25.348 10.383 48.281 27.132 64.756l163.271 163.061-37.823 226.031c-0.765 4.405-1.201 9.483-1.201 14.661 0 9.707 1.534 19.058 4.377 27.821 5.861 18.897 18.23 36.455 35.811 48.557 20.242 13.872 45.587 18.91 69.766 15.037 14.403-2.25 27.271-7.447 38.441-14.979l184.321-98.716 193.206 104.009c0.687 0.397 1.414 0.622 2.145 0.976 12.577 6.522 27.459 10.347 43.235 10.347 20.171 0 38.883-6.254 54.301-16.927 29.235-20.139 44.478-55.835 38.628-90.741l-0.397-2.373-37.489-223.677 163.299-163.052zM530.368 809.335c-3.937-2.135-8.615-3.387-13.588-3.396-4.594 0-9.239 1.167-13.442 3.396l-206.578 111.254c-5.3 2.823-11.59 4.483-18.267 4.483-8.131 0-15.689-2.461-21.965-6.676-11.396-7.867-17.145-21.026-14.896-34.378l40.276-240.589c0.25-1.413 0.394-3.041 0.394-4.7 0-7.892-3.206-15.040-8.389-20.207l-173.715-173.465c-6.366-6.214-10.315-14.885-10.315-24.475 0-3.957 0.676-7.759 1.909-11.294 4.281-12.338 15.903-21.793 29.582-23.814l237.049-35.238c9.943-1.523 18.090-7.988 21.941-16.764l102.581-212.973c6.081-12.578 19.39-20.704 33.885-20.704s27.762 8.123 33.842 20.681l103.050 213.91c4.1 8.518 12.142 14.432 21.497 15.851l237.070 35.238c14.133 1.963 25.571 11.737 29.908 24.752 4.017 11.737 0.726 25.603-8.705 34.851l-173.754 173.444c-5.183 5.167-8.389 12.309-8.389 20.207 0 1.659 0.142 3.291 0.419 4.874l40.274 240.438c0.292 1.692 0.459 3.643 0.459 5.632 0 11.949-6.049 22.487-15.25 28.717-6.27 4.22-13.843 6.688-21.994 6.688-6.668 0-12.947-1.653-18.453-4.57l-206.425-111.171z" fill="#504C23" p-id="7666"></path><path d="M204.060 457.059c-7.811-0.086-14.112-6.439-14.112-14.268 0-7.024 5.073-12.863 11.756-14.046l9.562-1.533c0.707-0.125 1.526-0.195 2.358-0.195 7.045 0 12.892 5.147 13.98 11.885 0.127 0.77 0.194 1.561 0.194 2.369 0 7.081-5.151 12.957-11.908 14.093l-9.557 1.532c-0.597 0.109-1.282 0.171-1.984 0.171-0.098 0-0.203-0.001-0.304-0.002zM256.461 448.562c-7.773-0.151-14.016-6.489-14.016-14.284 0-6.841 4.81-12.561 11.232-13.961l154.562-29.82 58.251-133.621c2.256-5.091 7.265-8.578 13.089-8.578 7.885 0 14.274 6.387 14.274 14.274 0 2.060-0.434 4.021-1.223 5.787l-61.234 140.404c-1.989 4.475-6.095 7.687-11.010 8.393l-161.226 31.153c-0.762 0.159-1.639 0.251-2.542 0.251-0.058 0-0.117 0-0.178-0.001z" fill="#848D2F" p-id="7667"></path></svg>