<?xml version="1.0" standalone="no"?><!DOCTYPE svg PUBLIC "-//W3C//DTD SVG 1.1//EN" "http://www.w3.org/Graphics/SVG/1.1/DTD/svg11.dtd"><svg t="1524571069986" class="icon" style="" viewBox="0 0 1024 1024" version="1.1" xmlns="http://www.w3.org/2000/svg" p-id="4387" xmlns:xlink="http://www.w3.org/1999/xlink" width="64" height="64"><defs><style type="text/css"></style></defs><path d="M240.071 241.095h59.278v59.278h-59.278v-59.278z" fill="#707070" p-id="4388"></path><path d="M405.959 134.485h-272.611v272.611h106.723v47.445h59.278v-47.445h106.723v-59.278h47.445v-47.445h-47.445l-0.114-165.888zM346.795 347.819h-154.169v-154.055h154.055v154.055h0.114zM240.071 727.154h59.278v59.278h-59.278v-59.278zM726.016 241.095h59.278v59.278h-59.278v-59.278zM512.683 509.042v63.943h59.278v-59.165h47.445v-59.278h-47.445v-47.445h-59.278v101.945zM512.683 725.789v60.643h59.278v-106.723h47.445v-59.278h-106.723v105.358zM571.961 786.432h47.445v47.445h-47.445v-47.445zM453.405 833.877v59.165h118.557v-59.165h-118.557z" fill="#707070" p-id="4389"></path><path d="M678.685 679.709h-59.278v106.723h106.61v-59.278h-47.331v-47.445zM726.016 893.042h166.002v-59.165h-106.723v-47.445h-59.278v106.61zM892.018 513.821v-59.278h-106.723v59.278h106.723zM832.739 727.154h59.278v59.278h-59.278v-59.278zM453.405 347.819h59.278v59.278h-59.278v-59.278zM726.016 454.542v-47.445h166.002v-272.611h-272.611v59.278h-106.723v47.445h106.723v59.165h-47.445v47.445h47.445v59.278h59.278v47.445h47.331zM678.685 193.763h154.055v154.055h-154.055v-154.055zM678.685 572.985h47.331v47.445h-47.331v-47.445zM785.294 679.709h-59.278v47.445h106.723v-106.723h59.278v-47.445h-106.723v106.723zM453.405 241.095h59.278v59.278h-59.278v-59.278zM299.349 513.821h47.445v59.165h-47.445v-59.165zM453.405 454.542h-106.61v59.278h59.165v59.165h47.445v-118.443z" fill="#707070" p-id="4390"></path><path d="M405.959 786.432v-106.723h47.445v-59.278h-213.333v-106.61h-106.723v59.278h59.278v47.445h-59.278v272.611h272.611v-59.278h47.445v-47.445h-47.445zM346.795 833.877h-154.169v-154.169h154.055v154.169h0.114zM453.405 572.985h59.278v47.445h-59.278v-47.445zM619.406 513.821h59.278v59.165h-59.278v-59.165zM726.016 513.821h59.278v59.165h-59.278v-59.165z" fill="#707070" p-id="4391"></path></svg>