<?xml version="1.0" standalone="no"?><!DOCTYPE svg PUBLIC "-//W3C//DTD SVG 1.1//EN" "http://www.w3.org/Graphics/SVG/1.1/DTD/svg11.dtd"><svg t="1526275101675" class="icon" style="" viewBox="0 0 1024 1024" version="1.1" xmlns="http://www.w3.org/2000/svg" p-id="1945" xmlns:xlink="http://www.w3.org/1999/xlink" width="200" height="200"><defs><style type="text/css"></style></defs><path d="M512 0C229.696 0 0 229.696 0 512c0 282.282667 229.696 512 512 512 282.282667 0 512-229.717333 512-512C1024 229.696 794.282667 0 512 0zM512 981.290667C253.226667 981.290667 42.688 770.773333 42.688 512S253.226667 42.688 512 42.688 981.290667 253.226667 981.290667 512 770.773333 981.290667 512 981.290667z" p-id="1946" fill="#7b5353"></path><path d="M353.770667 530.432 263.04 530.432c-18.218667 0-33.024 14.869333-33.024 33.088l0 90.752c0 18.261333 14.826667 33.109333 33.024 33.109333l90.730667 0c18.261333 0 33.109333-14.826667 33.109333-33.109333l0-90.752C386.901333 545.28 372.053333 530.432 353.770667 530.432z" p-id="1947" fill="#7b5353"></path><path d="M353.770667 336.618667 263.04 336.618667c-18.218667 0-33.024 14.826667-33.024 33.088l0 90.752c0 18.218667 14.826667 33.088 33.024 33.088l90.730667 0c18.261333 0 33.109333-14.848 33.109333-33.088L386.88 369.706667C386.901333 351.466667 372.053333 336.618667 353.770667 336.618667z" p-id="1948" fill="#7b5353"></path><path d="M469.248 493.546667l90.709333 0c18.282667 0 33.173333-14.848 33.173333-33.088L593.130667 369.706667c0-18.24-14.869333-33.088-33.173333-33.088l-90.709333 0c-18.24 0-33.088 14.826667-33.088 33.088l0 90.752C436.138667 478.677333 451.008 493.546667 469.248 493.546667z" p-id="1949" fill="#7b5353"></path><path d="M760.917333 336.618667l-90.709333 0c-18.282667 0-33.130667 14.826667-33.130667 33.088l0 160.725333-167.850667 0c-18.24 0-33.088 14.869333-33.088 33.088l0 90.752c0 18.261333 14.848 33.109333 33.088 33.109333l295.338667-0.32c16.789333-1.92 29.418667-15.978667 29.418667-32.789333L793.984 369.706667C794.005333 351.466667 779.157333 336.618667 760.917333 336.618667z" p-id="1950" fill="#7b5353"></path></svg>