<?xml version="1.0" standalone="no"?><!DOCTYPE svg PUBLIC "-//W3C//DTD SVG 1.1//EN" "http://www.w3.org/Graphics/SVG/1.1/DTD/svg11.dtd"><svg t="1526281421556" class="icon" style="" viewBox="0 0 1024 1024" version="1.1" xmlns="http://www.w3.org/2000/svg" p-id="1945" xmlns:xlink="http://www.w3.org/1999/xlink" width="200" height="200"><defs><style type="text/css"></style></defs><path d="M512 0C229.674667 0 0 229.696 0 512c0 282.282667 229.674667 512 512 512 282.282667 0 512-229.717333 512-512C1024 229.696 794.325333 0 512 0zM511.978667 981.290667C253.205333 981.290667 42.688 770.773333 42.688 512 42.688 253.205333 253.205333 42.688 512 42.688c258.773333 0 469.290667 210.517333 469.290667 469.312C981.290667 770.773333 770.773333 981.290667 511.978667 981.290667z" p-id="1946" fill="#7b5353"></path><path d="M753.301333 490.666667l-219.946667 0L533.354667 270.741333c0-11.776-9.557333-21.333333-21.354667-21.333333-11.776 0-21.333333 9.536-21.333333 21.333333L490.666667 490.666667 270.72 490.666667c-11.776 0-21.333333 9.557333-21.333333 21.333333 0 11.797333 9.557333 21.354667 21.333333 21.354667L490.666667 533.354667l0 219.904c0 11.861333 9.536 21.376 21.333333 21.376 11.797333 0 21.354667-9.578667 21.354667-21.333333l0-219.946667 219.946667 0c11.754667 0 21.333333-9.557333 21.333333-21.354667C774.634667 500.224 765.077333 490.666667 753.301333 490.666667z" p-id="1947" fill="#7b5353"></path></svg>