<?xml version="1.0" standalone="no"?><!DOCTYPE svg PUBLIC "-//W3C//DTD SVG 1.1//EN" "http://www.w3.org/Graphics/SVG/1.1/DTD/svg11.dtd"><svg t="1526275116459" class="icon" style="" viewBox="0 0 1024 1024" version="1.1" xmlns="http://www.w3.org/2000/svg" p-id="2168" xmlns:xlink="http://www.w3.org/1999/xlink" width="200" height="200"><defs><style type="text/css"></style></defs><path d="M593.024 234.496l-46.165333 46.229333c0.106667 0.085333 0.149333 0.149333 0.277333 0.234667 127.552 127.658667 127.552 334.677333 0 462.336l46.122667 46.250667c153.045333-153.194667 153.045333-401.621333 0-554.816C593.173333 234.666667 593.130667 234.56 593.024 234.496z" p-id="2169" fill="#7b5353"></path><path d="M500.885333 327.189333c-0.042667-0.085333-0.128-0.149333-0.234667-0.213333l-46.165333 46.229333c0.042667 0.085333 0.128 0.149333 0.234667 0.256 76.48 76.565333 76.48 200.789333 0 277.397333l46.144 46.229333C603.008 595.008 603.008 429.333333 500.885333 327.189333z" p-id="2170" fill="#7b5353"></path><path d="M408.32 419.434667l-92.394667 92.458667 92.629333 92.714667c51.008-51.114667 51.008-133.888 0-184.938667C408.469333 419.584 408.362667 419.52 408.32 419.434667z" p-id="2171" fill="#7b5353"></path><path d="M512 0C229.696 0 0 229.696 0 512c0 282.282667 229.696 512 512 512 282.282667 0 512-229.717333 512-512C1024 229.696 794.282667 0 512 0zM512 981.290667C253.226667 981.290667 42.688 770.773333 42.688 512S253.226667 42.688 512 42.688 981.290667 253.226667 981.290667 512 770.773333 981.290667 512 981.290667z" p-id="2172" fill="#7b5353"></path></svg>