<?xml version="1.0" standalone="no"?><!DOCTYPE svg PUBLIC "-//W3C//DTD SVG 1.1//EN" "http://www.w3.org/Graphics/SVG/1.1/DTD/svg11.dtd"><svg t="1524575600650" class="icon" style="" viewBox="0 0 1024 1024" version="1.1" xmlns="http://www.w3.org/2000/svg" p-id="19045" xmlns:xlink="http://www.w3.org/1999/xlink" width="64" height="64"><defs><style type="text/css"></style></defs><path d="M921.6 443.733H785.067a34.133 34.133 0 0 0 0 68.267H921.6a34.133 34.133 0 0 0 0-68.267m0-136.533H785.067a34.133 34.133 0 0 0 0 68.267H921.6a34.133 34.133 0 0 0 0-68.267m-136.533-68.267H921.6a34.133 34.133 0 0 0 0-68.266H785.067a34.133 34.133 0 0 0 0 68.266" p-id="19046" fill="#7b5353"></path><path d="M799.744 648.533c-5.461-2.423-103.697-45.397-211.968-66.935 12.595-10.274 23.62-22.323 33.178-35.465a186.539 186.539 0 0 0 36.044-110.08V324.301a188.075 188.075 0 0 0-76.731-151.143 185.993 185.993 0 0 0-110.729-36.625c-103.39 0-187.494 84.241-187.494 187.768v111.752c0 60.314 28.672 113.937 72.943 148.344-102.912 22.22-193.434 61.679-197.905 63.693-31.198 12.527-54.682 47.581-54.682 81.51v140.493l1.843 5.359c10.138 29.764 37.479 49.732 68.028 49.732h611.191c35.5 0 64.888-26.522 69.291-60.757l0.58-134.827c0-16.247-5.53-32.768-14.575-46.933-9.693-15.224-23.415-27.75-39.014-34.134" p-id="19047" fill="#7b5353"></path></svg>