<?xml version="1.0" standalone="no"?><!DOCTYPE svg PUBLIC "-//W3C//DTD SVG 1.1//EN" "http://www.w3.org/Graphics/SVG/1.1/DTD/svg11.dtd"><svg t="1524576269760" class="icon" style="" viewBox="0 0 1024 1024" version="1.1" xmlns="http://www.w3.org/2000/svg" p-id="1756" xmlns:xlink="http://www.w3.org/1999/xlink" width="64" height="64"><defs><style type="text/css"></style></defs><path d="M238.323409 764.78426c-106.980523-71.483054-175.933965-183.867658-175.933965-310.253136 0-215.956493 201.304795-391.012462 449.610044-391.012462 248.304226 0 449.610044 175.055968 449.610044 391.012462 0 215.94626-201.305819 391.004275-449.610044 391.004275-44.1178 0-86.74669-5.51869-127.026068-15.817244l-115.380844 87.308485c-17.276479 13.057387-31.270191 6.196119-31.270191-15.385409L238.322385 764.78426zM785.674545 513.176802c32.395828 0 58.644655-26.258037 58.644655-58.645678 0-32.395828-26.247804-58.653865-58.644655-58.653865s-58.645678 26.258037-58.645678 58.653865C727.02989 486.918765 753.278717 513.176802 785.674545 513.176802zM511.999488 513.176802c32.394804 0 58.644655-26.258037 58.644655-58.645678 0-32.395828-26.248827-58.653865-58.644655-58.653865-32.395828 0-58.645678 26.258037-58.645678 58.653865C453.35381 486.918765 479.603661 513.176802 511.999488 513.176802zM238.323409 513.176802c32.395828 0 58.645678-26.258037 58.645678-58.645678 0-32.395828-26.248827-58.653865-58.645678-58.653865s-58.644655 26.258037-58.644655 58.653865C179.678754 486.918765 205.926558 513.176802 238.323409 513.176802z" p-id="1757" fill="#7b5353"></path></svg>