<?xml version="1.0" standalone="no"?><!DOCTYPE svg PUBLIC "-//W3C//DTD SVG 1.1//EN" "http://www.w3.org/Graphics/SVG/1.1/DTD/svg11.dtd"><svg t="1524473032768" class="icon" style="" viewBox="0 0 1024 1024" version="1.1" xmlns="http://www.w3.org/2000/svg" p-id="3596" xmlns:xlink="http://www.w3.org/1999/xlink" width="64" height="64"><defs><style type="text/css"></style></defs><path d="M768 384q-26.016 0-44.992 19.008T704 448t19.008 44.992T768 512t44.992-19.008T832 448t-19.008-44.992T768 384zM512 832q-52.992 0-108-12l-151.008 91.008 2.016-148.992q-88-52.992-139.488-135.488T64.032 448.032q0-104 60-192.512t163.008-140 224.992-51.488q186.016 0 316.992 112.512t131.008 271.488T829.024 719.52 512.032 832.032z m0-832Q372.992 0 255.008 60T68.512 223.008 0 448q0 104 51.488 195.488T192 796.992V1024l224-136q48.992 8 96 8 139.008 0 256.992-60t186.496-163.008T1024 448t-68.512-224.992T768.992 60 512 0zM256 384q-26.016 0-44.992 19.008T192 448t19.008 44.992T256 512t44.992-19.008T320 448t-19.008-44.992T256 384z m256 0q-26.016 0-44.992 19.008T448 448t19.008 44.992T512 512t44.992-19.008T576 448t-19.008-44.992T512 384z" p-id="3597" fill="#7b5353"></path></svg>