<?xml version="1.0" standalone="no"?><!DOCTYPE svg PUBLIC "-//W3C//DTD SVG 1.1//EN" "http://www.w3.org/Graphics/SVG/1.1/DTD/svg11.dtd"><svg t="1526908046847" class="icon" style="" viewBox="0 0 1026 1024" version="1.1" xmlns="http://www.w3.org/2000/svg" p-id="1712" xmlns:xlink="http://www.w3.org/1999/xlink" width="200.390625" height="200"><defs><style type="text/css"></style></defs><path d="M759.296 691.797333c7.424-9.173333 5.994667-22.613333-3.157333-29.994667-44.266667-35.776-97.088-61.76-154.410667-77.205333 107.072-47.530667 182.037333-154.666667 182.037333-279.146667C783.744 137.002667 646.72 0 478.314667 0 309.909333 0 172.885333 137.002667 172.885333 305.429333c0 125.525333 76.16 233.514667 184.661333 280.426667C180.672 638.122667 51.114667 801.792 51.114667 995.392c0 11.797333 9.557333 21.333333 21.333333 21.333333s21.333333-9.536 21.333333-21.333333c0-212.032 172.501333-384.533333 384.533333-384.533333 94.741333 0 183.893333 29.866667 250.965333 84.096C738.474667 702.421333 751.914667 700.928 759.296 691.797333zM215.552 305.429333C215.552 160.533333 333.418667 42.666667 478.314667 42.666667c144.896 0 262.762667 117.866667 262.762667 262.762667s-117.866667 262.762667-262.762667 262.762667C333.418667 568.192 215.552 450.304 215.552 305.429333z" p-id="1713" fill="#ffffff"></path><path d="M1004.181333 795.712l-161.322667 0 0-161.322667c0-11.797333-9.536-21.333333-21.333333-21.333333s-21.333333 9.536-21.333333 21.333333l0 161.322667-161.322667 0c-11.797333 0-21.333333 9.536-21.333333 21.333333s9.536 21.333333 21.333333 21.333333l161.322667 0 0 161.322667c0 11.797333 9.536 21.333333 21.333333 21.333333s21.333333-9.536 21.333333-21.333333l0-161.322667 161.322667 0c11.797333 0 21.333333-9.536 21.333333-21.333333S1015.978667 795.712 1004.181333 795.712z" p-id="1714" fill="#ffffff"></path></svg>