<?xml version="1.0" standalone="no"?><!DOCTYPE svg PUBLIC "-//W3C//DTD SVG 1.1//EN" "http://www.w3.org/Graphics/SVG/1.1/DTD/svg11.dtd"><svg t="1524575572678" class="icon" style="" viewBox="0 0 1024 1024" version="1.1" xmlns="http://www.w3.org/2000/svg" p-id="18915" xmlns:xlink="http://www.w3.org/1999/xlink" width="64" height="64"><defs><style type="text/css"></style></defs><path d="M921.6 307.2H785.067a34.133 34.133 0 0 0 0 68.267H921.6a34.133 34.133 0 0 0 0-68.267m0 136.533H785.067a34.133 34.133 0 0 0 0 68.267H921.6a34.133 34.133 0 0 0 0-68.267m-136.533-204.8H921.6a34.133 34.133 0 0 0 0-68.266H785.067a34.133 34.133 0 0 0 0 68.266" p-id="18916"></path><path d="M785.067 856.917H172.27c-0.444 0-1.024-0.273-1.604-0.716V729.6c0-6.246 6.314-15.906 12.902-18.637 1.673-0.682 167.356-73.216 294.298-73.216 126.668 0 292.659 72.5 295.116 73.592 5.667 2.355 12.084 12.083 12.084 18.261v127.317zM350.31 436.053V324.301a119.467 119.467 0 0 1 119.228-119.467 119.467 119.467 0 0 1 119.194 119.467v111.752a119.467 119.467 0 0 1-119.194 119.535A119.535 119.535 0 0 1 350.31 436.053z m449.434 212.514c-5.461-2.423-103.697-45.397-211.968-66.935a187.63 187.63 0 0 0 69.222-145.545V324.335c0-103.526-84.104-187.802-187.46-187.802-103.39 0-187.494 84.241-187.494 187.734v111.786c0 60.314 28.672 113.937 72.943 148.344-102.912 22.186-193.434 61.679-197.905 63.693-31.198 12.56-54.682 47.616-54.682 81.544v140.493l1.843 5.359c10.138 29.764 37.479 49.732 68.028 49.732h611.191c35.5 0 64.888-26.521 69.291-60.757l0.58-134.827c0-33.69-23.415-68.71-53.589-81.067z" p-id="18917"></path></svg>