<?xml version="1.0" standalone="no"?><!DOCTYPE svg PUBLIC "-//W3C//DTD SVG 1.1//EN" "http://www.w3.org/Graphics/SVG/1.1/DTD/svg11.dtd"><svg t="1524576265017" class="icon" style="" viewBox="0 0 1024 1024" version="1.1" xmlns="http://www.w3.org/2000/svg" p-id="1624" xmlns:xlink="http://www.w3.org/1999/xlink" width="64" height="64"><defs><style type="text/css"></style></defs><path d="M511.999488 63.519686c-248.305249 0-449.610044 175.055968-449.610044 391.012462 0 126.386502 68.953442 238.770082 175.933965 310.25416l0 136.856971c0 21.581528 13.993712 28.442796 31.270191 15.385409l115.380844-87.308485c40.279379 10.298554 82.908268 15.817244 127.026068 15.817244 248.304226 0 449.610044-175.056991 449.610044-391.005298C961.609533 238.575654 760.303714 63.519686 511.999488 63.519686zM511.999488 786.804786c-43.831274 0-85.962837-6.127558-125.307937-17.438161l-89.723487 56.535621 0-93.827969C190.980147 672.628374 121.033076 570.495252 121.033076 454.484052c0-183.532013 175.037549-332.319711 390.966413-332.319711 215.927841 0 390.965389 148.787698 390.965389 332.319711C902.963855 638.018112 727.927329 786.804786 511.999488 786.804786z" p-id="1625"></path><path d="M277.419845 395.878283c32.395828 0 58.645678 26.258037 58.645678 58.653865 0 32.386618-26.248827 58.645678-58.645678 58.645678-32.394804 0-58.644655-26.258037-58.644655-58.645678C218.77519 422.13632 245.024018 395.878283 277.419845 395.878283z" p-id="1626"></path><path d="M511.999488 395.878283c32.394804 0 58.644655 26.258037 58.644655 58.653865 0 32.386618-26.248827 58.645678-58.644655 58.645678-32.395828 0-58.645678-26.258037-58.645678-58.645678C453.35381 422.13632 479.603661 395.878283 511.999488 395.878283z" p-id="1627"></path><path d="M746.578108 395.878283c32.395828 0 58.644655 26.258037 58.644655 58.653865 0 32.386618-26.247804 58.645678-58.644655 58.645678s-58.645678-26.258037-58.645678-58.645678C687.933453 422.13632 714.18228 395.878283 746.578108 395.878283z" p-id="1628"></path></svg>