<?xml version="1.0" standalone="no"?><!DOCTYPE svg PUBLIC "-//W3C//DTD SVG 1.1//EN" "http://www.w3.org/Graphics/SVG/1.1/DTD/svg11.dtd"><svg t="1524575718832" class="icon" style="" viewBox="0 0 1024 1024" version="1.1" xmlns="http://www.w3.org/2000/svg" p-id="4345" xmlns:xlink="http://www.w3.org/1999/xlink" width="64" height="64"><defs><style type="text/css"></style></defs><path d="M511.908 970.246c-272.654 0-410.999-61.283-410.999-182.198 0-86.236 142.566-142.932 284.397-162.014v-17.981C299.986 548.42 258.52 444.387 258.52 290.996c0-148.62 93.025-237.425 248.985-237.425h8.44c155.96 0 248.985 88.805 248.985 237.425 0 57.797 0 228.985-125.685 317.24l-0.367 17.798c141.831 19.265 283.846 75.778 283.846 161.83 0.183 121.099-138.162 182.382-410.816 182.382z m-4.22-853.374c-84.768 0-185.867 30.275-185.867 174.124 0 138.345 36.513 227.701 111.557 272.838 9.541 5.688 15.23 15.962 15.23 26.971v63.302c0 16.33-12.294 29.907-28.44 31.375-153.942 15.412-255.958 71.925-255.958 102.383 0 98.346 189.17 119.08 347.698 119.08 158.712 0 347.698-20.55 347.698-119.08 0-30.642-102.016-86.97-255.957-102.383a31.485 31.485 0 0 1-28.44-32.11l1.468-63.3c0.184-10.826 6.055-20.734 15.23-26.422 75.227-45.32 110.088-131.923 110.088-272.837 0-144.033-101.098-174.124-185.867-174.124l-8.44 0.183z" p-id="4346"></path></svg>